<?xml version="1.0" standalone="no"?>
<!DOCTYPE svg PUBLIC "-//W3C//DTD SVG 20010904//EN"
 "http://www.w3.org/TR/2001/REC-SVG-20010904/DTD/svg10.dtd">
<svg version="1.0" xmlns="http://www.w3.org/2000/svg"
 width="522.000000pt" height="447.000000pt" viewBox="0 0 522.000000 447.000000"
 preserveAspectRatio="xMidYMid meet">

<g transform="translate(0.000000,447.000000) scale(0.100000,-0.100000)"
fill="#000000" stroke="none">
<path d="M2425 4169 c-699 -65 -1290 -523 -1559 -1208 -20 -51 -36 -100 -34
-109 2 -9 18 24 36 72 19 48 35 86 37 84 2 -2 -9 -41 -26 -86 -65 -184 -98
-354 -104 -537 -4 -139 -1 -125 25 110 14 121 66 329 110 443 17 46 33 82 35
80 2 -2 -14 -55 -36 -118 -41 -124 -90 -347 -88 -401 2 -33 2 -34 6 -4 2 17
15 86 29 154 76 372 255 697 514 935 288 265 583 412 960 477 109 18 147 20
290 14 321 -12 625 -104 873 -262 296 -189 517 -440 669 -760 71 -152 145
-423 133 -488 -4 -19 -3 -25 3 -17 14 21 20 -88 17 -296 -2 -126 -7 -187 -15
-197 -7 -8 -10 -24 -7 -35 12 -45 -72 -341 -138 -485 -64 -140 -193 -335 -299
-453 -27 -28 -51 -50 -55 -47 -4 2 -25 -15 -47 -38 l-39 -42 41 38 c22 20 43
35 46 32 3 -3 47 34 99 82 54 51 86 75 75 58 -85 -136 -246 -289 -438 -416
-48 -31 -85 -59 -82 -62 3 -2 -16 -17 -41 -31 -56 -33 -59 -44 -5 -16 238 121
456 304 616 515 59 78 119 167 116 173 -1 1 23 53 54 115 73 144 115 254 153
397 50 190 64 319 58 515 -4 94 -9 181 -12 195 -5 22 -4 23 5 5 7 -15 9 -1 5
50 l-4 70 14 -70 c47 -235 16 -629 -71 -910 -40 -126 -152 -367 -167 -358 -6
3 -7 1 -4 -4 16 -26 -161 -258 -300 -395 -244 -240 -567 -415 -903 -488 -47
-10 -74 -19 -60 -19 14 -1 63 8 109 19 46 11 86 19 88 16 7 -6 -204 -54 -292
-66 -44 -6 -111 -15 -150 -20 -62 -8 -56 -9 50 -5 657 25 1281 445 1576 1060
51 106 133 338 126 358 -2 6 -9 -10 -16 -37 -6 -27 -14 -47 -16 -44 -2 2 6 42
19 88 13 46 25 78 29 70 3 -8 3 3 0 25 -3 30 -2 36 6 25 8 -11 9 -5 4 24 -4
27 -3 37 5 32 16 -9 27 123 26 309 -2 464 -136 849 -414 1190 -71 87 -244 254
-329 318 -378 283 -848 419 -1306 376z m468 -36 c-7 -2 -19 -2 -25 0 -7 3 -2
5 12 5 14 0 19 -2 13 -5z m54 -9 c-3 -3 -12 -4 -19 -1 -8 3 -5 6 6 6 11 1 17
-2 13 -5z m46 -11 c-7 -2 -19 -2 -25 0 -7 3 -2 5 12 5 14 0 19 -2 13 -5z m72
-14 c55 -14 156 -51 152 -55 -1 -2 -50 12 -107 31 -102 33 -126 46 -45 24z
m233 -84 c24 -10 41 -19 39 -22 -3 -2 -29 8 -58 22 -59 27 -50 28 19 0z m272
-151 c0 -2 -9 0 -20 6 -11 6 -20 13 -20 16 0 2 9 0 20 -6 11 -6 20 -13 20 -16z
m165 -120 c50 -40 104 -87 120 -105 17 -18 -8 0 -55 40 -47 40 -115 96 -152
123 -38 28 -68 53 -68 55 0 7 58 -36 155 -113z m403 -461 c71 -121 129 -247
171 -369 23 -66 41 -127 41 -135 0 -8 -20 42 -44 111 -46 134 -107 267 -180
393 -25 43 -42 75 -37 73 5 -3 27 -36 49 -73z m-3175 -238 c-3 -9 -8 -14 -10
-11 -3 3 -2 9 2 15 9 16 15 13 8 -4z m3394 -307 c-3 -8 -6 -5 -6 6 -1 11 2 17
5 13 3 -3 4 -12 1 -19z m30 0 c-3 -8 -6 -5 -6 6 -1 11 2 17 5 13 3 -3 4 -12 1
-19z m-20 -50 c-3 -7 -5 -2 -5 12 0 14 2 19 5 13 2 -7 2 -19 0 -25z m10 -50
c-3 -7 -5 -2 -5 12 0 14 2 19 5 13 2 -7 2 -19 0 -25z m-126 -1241 c-10 -9 -11
-8 -5 6 3 10 9 15 12 12 3 -3 0 -11 -7 -18z m-42 -79 c-23 -44 -113 -173 -168
-243 -115 -145 -338 -340 -466 -409 -53 -29 -47 -24 76 64 191 136 372 322
499 514 61 93 84 121 59 74z"/>
<path d="M2849 3438 c-222 -174 -322 -392 -291 -633 6 -51 17 -106 23 -121 12
-29 12 -29 25 26 7 30 16 82 18 115 l6 60 -16 -48 c-8 -26 -19 -45 -25 -42
-14 9 -10 143 6 214 9 35 34 99 56 142 40 77 152 219 188 238 17 9 18 5 19
-52 1 -46 12 -93 42 -176 61 -171 52 -236 -47 -342 -45 -48 -161 -139 -178
-139 -4 0 -5 48 -3 107 3 59 1 99 -3 88 -9 -22 -40 -258 -34 -263 8 -8 174
117 231 173 111 110 128 190 74 351 -41 119 -52 197 -41 275 5 35 8 65 6 67
-1 1 -27 -16 -56 -40z"/>
<path d="M2300 3209 c7 -12 11 -66 11 -125 -1 -58 4 -114 9 -125 14 -24 14
-24 -61 11 -35 16 -90 36 -123 44 -76 20 -219 30 -291 21 l-58 -7 51 -44 c64
-56 109 -126 158 -244 60 -145 105 -181 252 -196 65 -7 309 14 317 26 3 5 -43
54 -102 110 -184 174 -225 190 -61 24 56 -57 99 -106 96 -110 -13 -13 -210
-24 -267 -15 -119 19 -166 61 -216 194 -37 99 -70 160 -105 195 -16 17 -30 34
-30 38 0 4 39 4 87 0 202 -15 327 -68 447 -188 43 -43 76 -81 73 -84 -3 -3
-26 6 -52 21 -25 15 -48 25 -50 23 -5 -5 179 -148 190 -148 12 0 -67 138 -102
179 -19 23 -30 41 -24 41 5 0 13 -4 16 -10 3 -5 15 -15 27 -21 19 -10 20 -9
14 12 -18 70 -18 75 4 39 l21 -35 -4 90 c-2 76 -7 98 -32 143 -28 52 -76 97
-146 140 -47 29 -63 29 -49 1z m103 -78 c32 -28 102 -141 78 -127 -6 4 -18 21
-27 38 -24 47 -28 26 -9 -57 9 -42 15 -78 13 -80 -7 -8 -82 41 -100 65 -16 23
-18 36 -12 108 4 45 11 82 15 82 5 0 23 -13 42 -29z"/>
<path d="M2982 2824 c-17 -9 -51 -33 -75 -54 -52 -46 -139 -155 -130 -164 3
-3 20 -6 37 -7 29 -1 30 -1 6 -8 -32 -9 -18 -17 61 -36 126 -29 250 -14 349
43 46 26 180 148 180 164 0 4 -30 8 -67 8 -51 0 -92 9 -167 35 -110 39 -146
42 -194 19z m179 -45 c39 -16 92 -36 120 -42 27 -6 49 -14 49 -17 0 -8 -87
-73 -130 -98 -55 -32 -143 -53 -207 -50 l-58 3 80 19 c104 25 115 36 35 36
-69 0 -203 10 -209 16 -9 8 119 129 154 145 56 26 86 24 166 -12z"/>
<path d="M2660 2587 c0 -29 115 -344 132 -362 12 -13 4 21 -43 177 -22 70 -39
132 -39 138 0 17 20 12 105 -25 103 -45 176 -96 212 -147 l28 -41 0 -186 c0
-102 4 -199 9 -215 l9 -29 -61 33 c-80 42 -182 127 -231 192 -67 89 -121 214
-121 278 0 21 7 15 36 -33 20 -32 38 -56 40 -54 6 6 -103 237 -112 237 -11 0
6 -159 27 -238 49 -192 191 -347 407 -441 41 -18 75 -31 78 -29 2 2 -9 33 -24
68 -26 63 -27 72 -27 245 0 204 -3 213 -78 282 -51 47 -132 90 -248 134 -91
33 -99 34 -99 16z"/>
<path d="M4301 2454 c0 -11 3 -14 6 -6 3 7 2 16 -1 19 -3 4 -6 -2 -5 -13z"/>
<path d="M813 2390 c0 -36 2 -50 4 -32 2 17 2 47 0 65 -2 17 -4 3 -4 -33z"/>
<path d="M4421 1824 c0 -11 3 -14 6 -6 3 7 2 16 -1 19 -3 4 -6 -2 -5 -13z"/>
<path d="M1980 1508 c0 -7 -13 -105 -30 -218 -16 -113 -30 -211 -30 -217 0 -7
11 -13 23 -13 23 0 24 3 31 113 8 142 17 217 25 217 3 0 44 -74 91 -165 47
-91 88 -165 92 -165 4 0 46 77 95 171 l88 171 7 -38 c3 -22 9 -84 13 -139 10
-165 10 -165 52 -165 l36 0 -7 38 c-3 20 -15 114 -26 207 -24 195 -27 215 -38
215 -5 0 -48 -75 -97 -167 -48 -93 -92 -174 -98 -181 -7 -9 -32 28 -93 140
-46 84 -89 165 -95 181 -12 27 -39 38 -39 15z"/>
<path d="M2575 1288 l0 -228 32 0 32 0 3 113 3 112 78 -2 c71 -3 77 -1 77 17
0 18 -7 20 -80 20 l-80 0 0 81 0 80 88 -3 c81 -3 87 -2 87 17 0 19 -7 20 -120
20 l-120 0 0 -227z"/>
<path d="M3030 1455 c-17 -37 -30 -69 -30 -71 0 -2 -31 -74 -70 -159 -38 -85
-70 -157 -70 -160 0 -3 11 -5 25 -5 20 0 26 7 35 40 6 22 20 61 30 85 l19 45
90 0 89 0 30 -82 30 -83 41 -3 40 -3 -36 78 c-20 43 -64 146 -99 228 -38 91
-69 151 -79 153 -10 2 -24 -17 -45 -63z m100 -191 c0 -2 -33 -4 -74 -4 l-75 0
37 89 36 89 38 -85 c21 -47 38 -87 38 -89z"/>
<path d="M935 1440 c19 -38 38 -70 40 -70 3 0 -11 32 -30 70 -19 39 -38 70
-40 70 -3 0 11 -31 30 -70z"/>
<path d="M993 1335 c9 -16 23 -39 32 -50 9 -11 7 -2 -6 20 -27 49 -47 72 -26
30z"/>
<path d="M1111 1158 c18 -27 54 -72 81 -100 l49 -53 -53 65 c-29 36 -66 81
-81 100 -23 28 -22 26 4 -12z"/>
<path d="M1300 935 c13 -14 26 -25 28 -25 3 0 -5 11 -18 25 -13 14 -26 25 -28
25 -3 0 5 -11 18 -25z"/>
<path d="M3689 943 c-13 -16 -12 -17 4 -4 16 13 21 21 13 21 -2 0 -10 -8 -17
-17z"/>
<path d="M1414 837 c55 -52 213 -162 319 -221 74 -41 248 -119 253 -113 3 2
-40 23 -93 47 -183 80 -341 178 -499 309 -16 15 -7 4 20 -22z"/>
<path d="M1807 649 c7 -7 15 -10 18 -7 3 3 -2 9 -12 12 -14 6 -15 5 -6 -5z"/>
<path d="M2880 460 c-34 -7 -34 -7 -5 -8 17 0 41 4 55 8 33 11 0 11 -50 0z"/>
<path d="M2798 443 c6 -2 18 -2 25 0 6 3 1 5 -13 5 -14 0 -19 -2 -12 -5z"/>
<path d="M2578 433 c34 -2 88 -2 120 0 31 2 3 3 -63 3 -66 0 -92 -1 -57 -3z"/>
<path d="M2833 423 c9 -2 25 -2 35 0 9 3 1 5 -18 5 -19 0 -27 -2 -17 -5z"/>
<path d="M2743 413 c15 -2 37 -2 50 0 12 2 0 4 -28 4 -27 0 -38 -2 -22 -4z"/>
<path d="M2608 403 c7 -3 16 -2 19 1 4 3 -2 6 -13 5 -11 0 -14 -3 -6 -6z"/>
</g>
</svg>
