<?xml version="1.0" standalone="no"?>
<!DOCTYPE svg PUBLIC "-//W3C//DTD SVG 20010904//EN"
 "http://www.w3.org/TR/2001/REC-SVG-20010904/DTD/svg10.dtd">
<svg version="1.0" xmlns="http://www.w3.org/2000/svg"
 width="222.000000pt" height="216.000000pt" viewBox="0 0 222.000000 216.000000"
 preserveAspectRatio="xMidYMid meet">

<g transform="translate(0.000000,216.000000) scale(0.100000,-0.100000)"
fill="#000000" stroke="none">
<path d="M1414 2037 c-37 -21 -147 -119 -202 -182 -72 -80 -126 -173 -164
-281 -29 -82 -31 -99 -32 -224 -1 -101 4 -153 18 -208 10 -41 22 -70 27 -65 4
4 15 51 23 103 9 52 18 108 21 123 7 43 -11 23 -25 -28 -15 -54 -27 -57 -36
-9 -18 97 22 282 87 405 53 100 208 279 241 279 6 0 8 -11 5 -27 -9 -48 10
-138 57 -268 70 -193 60 -263 -54 -388 -51 -56 -203 -177 -223 -177 -6 0 -8
45 -5 121 3 67 2 115 -2 108 -10 -19 -44 -298 -37 -305 8 -8 193 128 258 189
31 28 74 79 95 111 36 54 39 66 43 137 3 70 -1 91 -33 184 -48 139 -63 241
-49 337 5 40 10 74 9 75 -1 1 -11 -4 -22 -10z"/>
<path d="M712 1723 c6 -16 10 -78 9 -146 0 -69 3 -127 10 -138 15 -30 3 -36
-34 -16 -50 26 -137 58 -197 74 -68 17 -321 28 -375 16 l-40 -9 31 -17 c79
-41 184 -194 238 -347 29 -83 76 -142 137 -173 47 -24 72 -30 158 -34 105 -6
368 14 377 28 3 5 -44 56 -104 113 -108 105 -212 194 -212 181 0 -3 54 -64
120 -135 66 -71 116 -131 111 -134 -22 -14 -248 -25 -315 -15 -130 18 -193 67
-242 188 -50 126 -114 250 -144 280 -55 55 -38 60 135 40 172 -19 341 -92 451
-196 56 -52 110 -121 102 -129 -3 -2 -29 10 -57 27 -79 49 -71 28 15 -37 107
-83 144 -106 144 -93 0 19 -69 140 -106 186 -43 53 -43 60 3 32 l36 -23 -7 30
c-19 75 -18 81 4 44 l21 -35 -4 105 c-2 86 -7 114 -26 154 -30 61 -83 115
-163 167 -75 48 -92 50 -76 12z m129 -100 c39 -41 89 -113 89 -129 0 -14 -18
0 -34 27 -10 17 -20 28 -24 25 -3 -3 3 -44 13 -91 10 -47 15 -88 12 -91 -10
-10 -101 46 -121 73 -21 29 -23 51 -11 161 5 43 13 72 19 72 7 0 32 -21 57
-47z"/>
<path d="M1525 1263 c-16 -9 -49 -32 -73 -51 -48 -39 -172 -184 -172 -201 0
-6 16 -11 35 -11 19 0 35 -4 35 -10 0 -5 -7 -10 -15 -10 -8 0 -15 -4 -15 -9 0
-19 217 -55 280 -46 129 17 200 45 287 114 49 38 145 134 151 151 2 4 -41 10
-95 12 -83 4 -113 11 -190 42 -103 40 -177 47 -228 19z m190 -39 c64 -27 162
-60 209 -69 l29 -6 -24 -25 c-36 -38 -147 -109 -209 -134 -38 -15 -85 -24
-150 -27 -52 -3 -92 -3 -89 1 8 9 144 46 169 46 11 0 20 4 20 9 0 5 -69 12
-152 16 -84 4 -156 9 -161 12 -12 7 80 109 134 149 83 61 133 67 224 28z"/>
<path d="M1140 987 c0 -25 109 -335 135 -385 31 -58 27 -38 -23 133 -55 189
-56 194 -49 201 9 10 178 -60 247 -101 73 -44 128 -100 153 -155 18 -37 20
-60 17 -130 -7 -156 -5 -315 4 -352 l8 -38 -38 16 c-60 25 -184 113 -246 174
-99 100 -189 264 -204 375 -9 59 6 58 40 -5 25 -47 46 -71 46 -53 0 4 -30 67
-65 138 l-65 130 5 -105 c11 -257 127 -469 335 -610 113 -77 308 -161 272
-117 -19 22 -60 160 -67 223 -4 33 -2 108 4 166 14 125 4 185 -40 252 -52 78
-195 165 -361 220 -40 13 -81 27 -90 31 -12 5 -18 2 -18 -8z"/>
</g>
</svg>
